<svg width="35" height="35" viewBox="0 0 35 35" fill="none" xmlns="http://www.w3.org/2000/svg">
<path d="M33.4878 11.9688C33.3552 11.5334 32.8949 11.2877 32.4596 11.4203C32.0242 11.5529 31.7785 12.0131 31.9111 12.4485C33.3348 16.9114 32.6732 21.7781 30.1104 25.6996C27.5472 29.6205 23.3552 32.1796 18.6964 32.6665C14.0374 33.1539 9.4069 31.5175 6.08822 28.2117C2.7693 24.9059 1.11517 20.2813 1.58495 15.6209C2.05424 10.9602 4.59662 6.75876 8.50801 4.1806C12.4189 1.6029 17.2828 0.922733 21.751 2.32882C22.1809 2.47048 22.6443 2.23651 22.786 1.80659C22.9272 1.37668 22.6937 0.913268 22.2638 0.772069C17.4889 -0.710021 12.3055 -0.0379886 8.06729 2.61307C3.82874 5.26364 0.9555 9.6302 0.19841 14.5713C-0.559156 19.513 0.874509 24.5395 4.1252 28.3379C7.37542 32.1366 12.1199 34.3301 17.1191 34.3454C22.5967 34.3436 27.7449 31.7297 30.9785 27.3093C34.2123 22.8884 35.1441 17.1903 33.4873 11.9694L33.4878 11.9688Z" fill="white"/>
<path d="M19.0075 6.14251C19.0491 5.69947 18.7292 5.30439 18.2875 5.25371C17.9037 5.21479 17.5182 5.19533 17.1326 5.19533C13.9553 5.1899 10.906 6.44792 8.65597 8.69173C6.40636 10.9354 5.1401 13.9811 5.13697 17.1584C5.13335 20.3362 6.3928 23.3845 8.63789 25.6332C10.8825 27.8819 13.9291 29.1458 17.1064 29.1477C20.2842 29.1495 23.332 27.8887 25.5795 25.6422C27.8267 23.3962 29.0894 20.3488 29.0894 17.1715C29.0894 16.7692 29.0894 16.3669 29.031 15.9714C28.9862 15.5252 28.5884 15.1998 28.1422 15.2446C27.696 15.2894 27.3706 15.6876 27.4154 16.1334C27.448 16.4773 27.4675 16.8276 27.4675 17.1715C27.4675 19.9244 26.3737 22.565 24.4273 24.5113C22.4804 26.4582 19.8403 27.552 17.0871 27.552C14.3342 27.552 11.6941 26.4582 9.74729 24.5113C7.8004 22.5649 6.70711 19.9243 6.70711 17.1715C6.70711 14.4188 7.80046 11.7781 9.74729 9.83176C11.6942 7.88487 14.3343 6.79112 17.0871 6.79112C17.4179 6.79112 17.736 6.79112 18.0863 6.84316C18.3017 6.87258 18.5194 6.81555 18.6923 6.68386C18.8651 6.55263 18.9787 6.35758 19.0077 6.14262L19.0075 6.14251Z" fill="white"/>
<path d="M17.1194 11.9813C17.2859 11.9718 17.4525 11.9718 17.619 11.9813C18.0444 11.9872 18.4033 11.6654 18.4436 11.2423C18.4843 10.8187 18.1933 10.435 17.7747 10.3594H17.1258C15.3165 10.3562 13.5796 11.0721 12.2984 12.3497C11.0172 13.6273 10.2959 15.3619 10.2946 17.1716C10.2927 18.9813 11.0105 20.7172 12.2894 21.997C13.5683 23.2773 15.3034 23.9964 17.1131 23.9964C18.9224 23.9964 20.658 23.2773 21.9368 21.997C23.2157 20.7172 23.9334 18.9813 23.9317 17.1716C23.9317 16.9381 23.9317 16.6978 23.8991 16.471C23.824 16.0506 23.438 15.7592 23.013 15.8013C22.5885 15.8438 22.2677 16.2063 22.2772 16.6331C22.298 16.8118 22.3089 16.9915 22.3098 17.1716C22.3098 18.5482 21.7631 19.8683 20.7897 20.8418C19.8163 21.8147 18.4962 22.3619 17.1195 22.3619C15.7428 22.3619 14.4228 21.8147 13.4493 20.8418C12.4763 19.8683 11.9292 18.5482 11.9292 17.1716C11.9292 15.7949 12.4764 14.4749 13.4493 13.5014C14.4227 12.5284 15.7428 11.9813 17.1195 11.9813H17.1194Z" fill="white"/>
<path d="M22.3869 7.83586V10.6968L17.6379 15.4196C17.1618 15.2517 16.6369 15.2943 16.1947 15.5373C15.7521 15.7803 15.4344 16.2007 15.3213 16.6926C15.2082 17.1846 15.3104 17.7014 15.6019 18.1132C15.8938 18.525 16.3472 18.7929 16.8491 18.8495C17.3506 18.9061 17.8524 18.7459 18.2285 18.4096C18.6045 18.0729 18.8195 17.5919 18.8186 17.0873C18.82 16.9248 18.7982 16.7633 18.7539 16.6072L23.7559 11.6051C23.9093 11.4522 23.9957 11.2445 23.9957 11.0277V8.17299L27.421 4.74772L27.4215 6.09044C27.4215 6.30541 27.5065 6.51176 27.6591 6.66382C27.8111 6.81587 28.017 6.90141 28.2324 6.90141H29.5299L26.286 10.1453C25.9688 10.4625 25.9688 10.9766 26.286 11.2938C26.6032 11.6106 27.1173 11.6106 27.4341 11.2938L32.0732 6.65477C32.3076 6.42352 32.3786 6.0737 32.2537 5.76914C32.1284 5.46458 31.8315 5.2659 31.5021 5.26637H29.0628V2.78193C29.0632 2.45247 28.8646 2.15561 28.56 2.03025C28.2555 1.9049 27.9056 1.9764 27.6744 2.21081L22.6267 7.25847C22.4733 7.41143 22.3873 7.61915 22.3869 7.83592L22.3869 7.83586Z" fill="white"/>
</svg>
