<svg width="50" height="46" viewBox="0 0 50 46" fill="none" xmlns="http://www.w3.org/2000/svg">
<path d="M16.5133 36.7597C16.5133 36.9473 16.2858 37.0963 15.9993 37.0963C15.6735 37.1242 15.446 36.9752 15.446 36.7597C15.446 36.5721 15.6735 36.4231 15.96 36.4231C16.2563 36.3952 16.5133 36.5442 16.5133 36.7597ZM13.4418 36.3393C13.373 36.5269 13.5696 36.7384 13.8632 36.7983C13.971 36.8482 14.0951 36.8565 14.2093 36.8216C14.3235 36.7866 14.419 36.711 14.4755 36.6107C14.5345 36.4231 14.3477 36.2116 14.0542 36.1238C13.9417 36.0855 13.8185 36.0862 13.7065 36.1256C13.5944 36.1651 13.5007 36.2407 13.4418 36.3393ZM17.8068 36.1796C17.5259 36.2448 17.3223 36.4231 17.3532 36.6386C17.3827 36.8262 17.6341 36.9473 17.936 36.8821C18.238 36.8169 18.4205 36.6386 18.3896 36.4524C18.3587 36.2661 18.0933 36.1517 17.8068 36.1796ZM24.3037 0.335042C21.1175 0.271537 17.9506 0.817947 14.9927 1.94153C12.0347 3.06512 9.3467 4.74276 7.08957 6.87394C4.83244 9.00512 3.05268 11.546 1.85693 14.3443C0.661177 17.1426 0.0740404 20.1408 0.130695 23.1591C0.0893706 28.0806 1.6836 32.8897 4.68761 36.9053C7.69162 40.9209 11.9531 43.9395 16.8686 45.5336C18.1326 45.7491 18.5764 45.0094 18.5764 44.4014C18.5764 43.8214 18.5469 40.6218 18.5469 38.6581C18.5469 38.6581 11.6343 40.0617 10.1836 35.8643C10.1836 35.8643 9.06004 33.1424 7.43792 32.4412C7.43792 32.4412 5.1768 30.9778 7.59662 31.0004C8.38477 31.1016 9.13802 31.3722 9.7987 31.7917C10.4594 32.2111 11.0099 32.7683 11.4082 33.4204C11.7378 34.0036 12.1876 34.5182 12.731 34.9338C13.2743 35.3494 13.9001 35.6574 14.5714 35.8398C15.2426 36.0221 15.9457 36.0751 16.639 35.9954C17.3322 35.9158 18.0015 35.7052 18.6073 35.3761C18.7347 34.184 19.2928 33.0702 20.1873 32.2231C14.6679 31.643 9.09234 30.886 9.09234 21.886C9.03741 20.8627 9.21725 19.8404 9.61948 18.8893C10.0217 17.9383 10.6368 17.0811 11.4223 16.3768C10.6735 14.3028 10.7651 12.0392 11.6793 10.0256C13.7438 9.41759 18.4936 12.5533 18.4936 12.5533C22.552 11.4932 26.8376 11.4932 30.8961 12.5533C30.8961 12.5533 35.6458 9.4096 37.7103 10.0256C38.6249 12.0391 38.7165 14.3029 37.9673 16.3768C38.7822 17.0698 39.4312 17.92 39.8706 18.8702C40.31 19.8204 40.5297 20.8487 40.515 21.886C40.515 30.9126 34.6992 31.6337 29.1784 32.2231C29.7734 32.7886 30.2321 33.4694 30.523 34.2187C30.814 34.9681 30.9302 35.7682 30.8638 36.5641C30.8638 39.7171 30.8343 43.6152 30.8343 44.3841C30.8343 44.9921 31.2879 45.7318 32.542 45.5163C37.4416 43.9253 41.6837 40.906 44.6607 36.891C47.6377 32.8761 49.1967 28.0715 49.1143 23.1658C49.1101 10.1839 38.001 0.335042 24.3037 0.335042ZM9.72854 32.5969C9.60074 32.69 9.63023 32.9056 9.79736 33.0838C9.95606 33.2328 10.1822 33.2993 10.3114 33.1769C10.4392 33.0838 10.4097 32.8683 10.2426 32.69C10.0839 32.541 9.85775 32.4758 9.72854 32.5969ZM8.66258 31.8386C8.59377 31.9596 8.69208 32.1047 8.8901 32.2031C8.92187 32.2261 8.95825 32.2427 8.99703 32.2519C9.0358 32.2611 9.07615 32.2627 9.1156 32.2566C9.15505 32.2505 9.19277 32.2368 9.22644 32.2164C9.26012 32.196 9.28904 32.1693 9.31143 32.1379C9.38025 32.0169 9.28194 31.8718 9.08391 31.7734C8.8901 31.7175 8.7314 31.7455 8.66258 31.8399V31.8386ZM11.8619 35.1645C11.7032 35.2856 11.7636 35.5637 11.9897 35.7446C12.2172 35.9601 12.5037 35.9881 12.6315 35.8377C12.7593 35.7167 12.7003 35.4386 12.5037 35.2577C12.286 35.0475 11.9911 35.0195 11.8619 35.1699V35.1645ZM10.7383 33.7889C10.5796 33.8821 10.5796 34.1255 10.7383 34.341C10.897 34.5566 11.1597 34.6497 11.2917 34.5566C11.3688 34.4776 11.4116 34.3741 11.4116 34.2665C11.4116 34.159 11.3688 34.0554 11.2917 33.9765C11.1512 33.7663 10.8942 33.6732 10.7369 33.7942L10.7383 33.7889Z" fill="white"/>
</svg>
