<svg width="45" height="43" viewBox="0 0 45 43" fill="none" xmlns="http://www.w3.org/2000/svg">
<path d="M10.3877 42.5669H1.21538V14.5894H10.3877V42.5669ZM5.79662 10.7713C4.74105 10.776 3.70771 10.4841 2.82729 9.93254C1.94686 9.38093 1.2589 8.59439 0.850398 7.67239C0.441899 6.75039 0.331217 5.73434 0.532348 4.75276C0.733479 3.77117 1.23739 2.86812 1.98035 2.15783C2.72331 1.44754 3.67195 0.961906 4.70629 0.762349C5.74064 0.562791 6.81422 0.658273 7.79127 1.03672C8.76833 1.41516 9.60496 2.05957 10.1954 2.88845C10.7858 3.71733 11.1034 4.69344 11.1082 5.69334C11.1093 7.03239 10.5516 8.31759 9.55669 9.2688C8.56174 10.22 7.21018 10.7601 5.79662 10.7713ZM44.7147 42.5669H35.562V28.948C35.562 25.7019 35.4932 21.5392 30.787 21.5392C26.0119 21.5392 25.2873 25.066 25.2873 28.7139V42.5669H16.1332V14.5894H24.9291V18.4062H25.0625C25.9414 16.9789 27.2128 15.8043 28.7411 15.0077C30.2694 14.2112 31.9973 13.8224 33.7405 13.883C43.0224 13.883 44.7287 19.6728 44.7287 27.1933V42.5669H44.7147Z" fill="white"/>
</svg>
